<svg xmlns="http://www.w3.org/2000/svg" width="26.994" height="34.885" viewBox="0 0 26.994 34.885">
  <path id="Icon_fa-solid-baby" data-name="Icon fa-solid-baby" d="M10.688,6.188A5.063,5.063,0,1,1,15.75,11.25a5.063,5.063,0,0,1-5.062-5.062Zm-7.9,3.973a2.811,2.811,0,0,1,3.93-.619l2.545,1.849a11.017,11.017,0,0,0,12.966,0l2.545-1.856a2.813,2.813,0,1,1,3.312,4.549L25.545,15.94A16.86,16.86,0,0,1,22.5,17.7V20.25H9V17.7A16.453,16.453,0,0,1,5.955,15.94L3.41,14.084a2.811,2.811,0,0,1-.619-3.93ZM9.105,23.154l4.261,3.727L11.538,29.5,13.247,31.2a2.814,2.814,0,1,1-3.98,3.98L5.892,31.809A2.818,2.818,0,0,1,5.569,28.2L9.1,23.154Zm9.035,3.727L22.4,23.154l3.53,5.048a2.815,2.815,0,0,1-.316,3.6L22.24,35.177a2.814,2.814,0,0,1-3.98-3.98l1.709-1.709-1.828-2.616Z" transform="translate(-2.252 -1.125)" fill="#fff"/>
</svg>
