<svg xmlns="http://www.w3.org/2000/svg" width="212.222" height="190.999" viewBox="0 0 212.222 190.999">
  <g id="Icon_material-photo-camera" data-name="Icon material-photo-camera" transform="translate(-3 -3)">
    <path id="Path_3" data-name="Path 3" d="M81.111,47.155A33.955,33.955,0,1,1,47.155,13.2,33.955,33.955,0,0,1,81.111,47.155Z" transform="translate(61.955 61.955)" fill="#fff"/>
    <path id="Path_4" data-name="Path 4" d="M77.278,3,57.859,24.222H24.222A21.285,21.285,0,0,0,3,45.444V172.777A21.285,21.285,0,0,0,24.222,194H194a21.285,21.285,0,0,0,21.222-21.222V45.444A21.285,21.285,0,0,0,194,24.222H160.362L140.944,3Zm31.833,159.166a53.055,53.055,0,1,1,53.055-53.055A53.075,53.075,0,0,1,109.111,162.166Z" transform="translate(0 0)" fill="#fff"/>
  </g>
</svg>
