<svg xmlns="http://www.w3.org/2000/svg" width="36" height="36" viewBox="0 0 36 36">
  <path id="Icon_fa-solid-money-bill-trend-up" data-name="Icon fa-solid-money-bill-trend-up" d="M33.1.661a2.425,2.425,0,0,1,.485.724,2.147,2.147,0,0,1,.169.858V9a2.25,2.25,0,0,1-4.5,0V7.685l-7.411,7.4a2.255,2.255,0,0,1-3.059.12l-6.405-5.5-6.412,5.5a2.249,2.249,0,0,1-2.925-3.417l7.875-6.75a2.25,2.25,0,0,1,2.932,0l6.293,5.393L26.065,4.5H24.75a2.25,2.25,0,0,1,0-4.5H31.5a2.267,2.267,0,0,1,1.589.654ZM0,21.375A3.376,3.376,0,0,1,3.375,18h29.25A3.376,3.376,0,0,1,36,21.375v11.25A3.376,3.376,0,0,1,32.625,36H3.375A3.376,3.376,0,0,1,0,32.625ZM3.375,29.25v3.375H6.75A3.376,3.376,0,0,0,3.375,29.25ZM6.75,21.375H3.375V24.75A3.376,3.376,0,0,0,6.75,21.375ZM32.625,29.25a3.376,3.376,0,0,0-3.375,3.375h3.375ZM29.25,21.375a3.376,3.376,0,0,0,3.375,3.375V21.375ZM22.5,27A4.5,4.5,0,1,0,18,31.5,4.5,4.5,0,0,0,22.5,27Z" fill="#fff"/>
</svg>
