<svg xmlns="http://www.w3.org/2000/svg" width="36" height="34.353" viewBox="0 0 36 34.353">
  <path id="Icon_simple-stylelint" data-name="Icon simple-stylelint" d="M5.122.823,0,5.568,3.363,8.475.821,11.224,17.584,35.088h.171c-3.937-14.079-3.825-14.142-6.669-24.18L10.4,11.3c-.372.215-.677.039-.677-.39V6.126C8.97,3.481,8.379,1.437,8.2.823ZM27.8.823c-.174.615-.765,2.658-1.521,5.3v4.787c0,.429-.3.6-.675.39l-.685-.4c-2.846,10.04-2.732,10.1-6.669,24.18-.025.1.09.135.171,0L35.18,11.226,32.636,8.475,36,5.568,30.878.823ZM10.551,1.948c-.177.01-.3.158-.3.407v7.69c0,.363.258.51.57.33l4.6-2.658a.5.5,0,0,1-.129-.333V4.931a.493.493,0,0,1,.084-.273L10.823,2.025a.5.5,0,0,0-.27-.077Zm14.908,0a.5.5,0,0,0-.27.078L20.632,4.656a.5.5,0,0,1,.086.274V7.385a.5.5,0,0,1-.132.334l4.6,2.655c.315.183.57.035.57-.327V2.355c0-.249-.12-.4-.3-.4ZM15.934,4.743c-.151,0-.274.084-.274.188V7.385c0,.1.123.188.274.188h4.142c.152,0,.276-.084.276-.187V4.931c0-.105-.125-.187-.276-.187Zm1.941,5.463a1.244,1.244,0,1,0,.879.364,1.244,1.244,0,0,0-.879-.364Zm-.015,7.4a1.25,1.25,0,1,0,.014,0h-.013Zm.015,7.4a1.241,1.241,0,1,0,.879.362A1.244,1.244,0,0,0,17.875,25Z" transform="translate(0 -0.823)" fill="#fff"/>
</svg>
