<svg xmlns="http://www.w3.org/2000/svg" width="45.001" height="36" viewBox="0 0 45.001 36">
  <path id="Icon_fa-solid-shirt" data-name="Icon fa-solid-shirt" d="M14.892,0a1.272,1.272,0,0,1,1.174.928,6.751,6.751,0,0,0,6.434,4.7,6.751,6.751,0,0,0,6.434-4.7A1.272,1.272,0,0,1,30.108,0h.886a6.753,6.753,0,0,1,4.324,1.568l8.873,7.39a2.262,2.262,0,0,1,.8,1.554,2.238,2.238,0,0,1-.548,1.659l-3.937,4.5a2.252,2.252,0,0,1-3.136.246L33.75,13.9V31.5a4.5,4.5,0,0,1-4.5,4.5H15.75a4.5,4.5,0,0,1-4.5-4.5V13.9L7.629,16.917a2.253,2.253,0,0,1-3.136-.246l-3.937-4.5a2.238,2.238,0,0,1-.548-1.659,2.262,2.262,0,0,1,.8-1.554l8.873-7.39A6.753,6.753,0,0,1,14.006,0h.886Z" transform="translate(0)" fill="#fff"/>
</svg>
