<svg xmlns="http://www.w3.org/2000/svg" width="286.5" height="191" viewBox="0 0 286.5 191">
  <path id="Icon_fa-solid-video" data-name="Icon fa-solid-video" d="M0,36.333A31.863,31.863,0,0,1,31.833,4.5H159.167A31.863,31.863,0,0,1,191,36.333V163.667A31.863,31.863,0,0,1,159.167,195.5H31.833A31.863,31.863,0,0,1,0,163.667ZM278.094,22.307A15.93,15.93,0,0,1,286.5,36.333V163.667A15.925,15.925,0,0,1,261.73,176.9l-47.75-31.833-7.063-4.725V59.661l7.063-4.725L261.73,23.1a15.973,15.973,0,0,1,16.364-.8Z" transform="translate(0 -4.5)" fill="#fff"/>
</svg>
